<?xml version="1.0" encoding="utf-8"?>
<COLLADA xmlns="http://www.collada.org/2005/11/COLLADASchema" version="1.4.1">
  <asset>
    <contributor>
      <authoring_tool>regenerate_aruco_board_daes.py id3</authoring_tool>
    </contributor>
    <unit name="meter" meter="1"/>
    <up_axis>Z_UP</up_axis>
  </asset>
  <library_images>
    <image id="aruco_png" name="aruco_png">
      <init_from>6x6_1000-3.png</init_from>
    </image>
  </library_images>
  <library_effects>
    <effect id="aruco_fx">
      <profile_COMMON>
        <newparam sid="aruco_surface">
          <surface type="2D">
            <init_from>aruco_png</init_from>
          </surface>
        </newparam>
        <newparam sid="aruco_sampler">
          <sampler2D>
            <source>aruco_surface</source>
          </sampler2D>
        </newparam>
        <technique sid="common">
          <lambert>
            <diffuse>
              <texture texture="aruco_sampler" texcoord="UVMap"/>
            </diffuse>
          </lambert>
        </technique>
      </profile_COMMON>
    </effect>
  </library_effects>
  <library_materials>
    <material id="aruco_mat" name="aruco_mat">
      <instance_effect url="#aruco_fx"/>
    </material>
  </library_materials>
  <library_geometries>
    <geometry id="aruco_slab" name="aruco_slab">
      <mesh>
        <source id="aruco_positions">
          <float_array id="aruco_positions_array" count="108">
            -0.05 -0.05 0
            -0.05 0.05 0
            -0.05 -0.05 -0.001
            0.05 -0.05 -0.001
            -0.05 -0.05 0
            -0.05 -0.05 -0.001
            -0.05 -0.05 -0.001
            -0.05 0.05 0
            -0.05 0.05 -0.001
            -0.05 0.05 -0.001
            0.05 -0.05 -0.001
            -0.05 -0.05 -0.001
            -0.05 -0.05 0
            0.05 0.05 0
            -0.05 0.05 0
            0.05 -0.05 0
            -0.05 -0.05 0
            0.05 -0.05 -0.001
            0.05 -0.05 0
            0.05 0.05 0
            -0.05 -0.05 0
            -0.05 0.05 0
            0.05 0.05 0
            -0.05 0.05 -0.001
            0.05 0.05 -0.001
            0.05 -0.05 -0.001
            -0.05 0.05 -0.001
            -0.05 0.05 -0.001
            0.05 0.05 0
            0.05 0.05 -0.001
            0.05 0.05 -0.001
            0.05 -0.05 0
            0.05 -0.05 -0.001
            0.05 0.05 0
            0.05 -0.05 0
            0.05 0.05 -0.001
          </float_array>
          <technique_common>
            <accessor source="#aruco_positions_array" count="36" stride="3">
              <param name="X" type="float"/>
              <param name="Y" type="float"/>
              <param name="Z" type="float"/>
            </accessor>
          </technique_common>
        </source>
        <source id="aruco_normals">
          <float_array id="aruco_normals_array" count="108">
            -1 0 0
            -1 0 0
            -1 0 0
            0 -1 0
            0 -1 0
            0 -1 0
            -1 0 0
            -1 0 0
            -1 0 0
            0 0 -1
            0 0 -1
            0 0 -1
            0 0 1
            0 0 1
            0 0 1
            -0 -1 -0
            -0 -1 -0
            -0 -1 -0
            0 -0 1
            0 -0 1
            0 -0 1
            -0 1 0
            -0 1 0
            -0 1 0
            -0 -0 -1
            -0 -0 -1
            -0 -0 -1
            0 1 0
            0 1 0
            0 1 0
            1 0 0
            1 0 0
            1 0 0
            1 0 0
            1 0 0
            1 0 0
          </float_array>
          <technique_common>
            <accessor source="#aruco_normals_array" count="36" stride="3">
              <param name="X" type="float"/>
              <param name="Y" type="float"/>
              <param name="Z" type="float"/>
            </accessor>
          </technique_common>
        </source>
        <source id="aruco_uvs">
          <float_array id="aruco_uvs_array" count="72">
            0.5 0.5
            0.5 0.5
            0.5 0.5
            0.5 0.5
            0.5 0.5
            0.5 0.5
            0.5 0.5
            0.5 0.5
            0.5 0.5
            1 1
            0 0
            1 0
            0 0
            1 1
            0 1
            0.5 0.5
            0.5 0.5
            0.5 0.5
            1 0
            1 1
            0 0
            0.5 0.5
            0.5 0.5
            0.5 0.5
            0 1
            0 0
            1 1
            0.5 0.5
            0.5 0.5
            0.5 0.5
            0.5 0.5
            0.5 0.5
            0.5 0.5
            0.5 0.5
            0.5 0.5
            0.5 0.5
          </float_array>
          <technique_common>
            <accessor source="#aruco_uvs_array" count="36" stride="2">
              <param name="S" type="float"/>
              <param name="T" type="float"/>
            </accessor>
          </technique_common>
        </source>
        <vertices id="aruco_vertices">
          <input semantic="POSITION" source="#aruco_positions"/>
        </vertices>
        <triangles material="aruco_mat" count="12">
          <input semantic="VERTEX" source="#aruco_vertices" offset="0"/>
          <input semantic="NORMAL" source="#aruco_normals" offset="1"/>
          <input semantic="TEXCOORD" source="#aruco_uvs" offset="2" set="0"/>
          <p>0 0 0 1 1 1 2 2 2 3 3 3 4 4 4 5 5 5 6 6 6 7 7 7 8 8 8 9 9 9 10 10 10 11 11 11 12 12 12 13 13 13 14 14 14 15 15 15 16 16 16 17 17 17 18 18 18 19 19 19 20 20 20 21 21 21 22 22 22 23 23 23 24 24 24 25 25 25 26 26 26 27 27 27 28 28 28 29 29 29 30 30 30 31 31 31 32 32 32 33 33 33 34 34 34 35 35 35</p>
        </triangles>
      </mesh>
    </geometry>
  </library_geometries>
  <library_visual_scenes>
    <visual_scene id="Scene" name="Scene">
      <node id="aruco_node" name="aruco_node" type="NODE">
        <instance_geometry url="#aruco_slab">
          <bind_material>
            <technique_common>
              <instance_material symbol="aruco_mat" target="#aruco_mat"/>
            </technique_common>
          </bind_material>
        </instance_geometry>
      </node>
    </visual_scene>
  </library_visual_scenes>
  <scene>
    <instance_visual_scene url="#Scene"/>
  </scene>
</COLLADA>
