<?xml version="1.0" encoding="UTF-8" standalone="no" ?>
<COLLADA xmlns="http://www.collada.org/2005/11/COLLADASchema" version="1.4.1">
  <asset>
    <contributor>
      <author>Assimp</author>
      <authoring_tool>Assimp Exporter</authoring_tool>
    </contributor>
    <created>2026-03-25T15:14:07</created>
    <modified>2026-03-25T15:14:07</modified>
    <unit name="meter" meter="1" />
    <up_axis>Y_UP</up_axis>
  </asset>
  <library_images>
  </library_images>
  <library_effects>
    <effect id="DefaultMaterial-fx" name="DefaultMaterial">
      <profile_COMMON>
        <technique sid="standard">
          <phong>
            <ambient>
              <color sid="ambient">0.0500000007   0.0500000007   0.0500000007   1</color>
            </ambient>
            <diffuse>
              <color sid="diffuse">1   1   1   1</color>
            </diffuse>
            <specular>
              <color sid="specular">1   1   1   1</color>
            </specular>
          </phong>
        </technique>
      </profile_COMMON>
    </effect>
  </library_effects>
  <library_materials>
    <material id="DefaultMaterial" name="DefaultMaterial">
      <instance_effect url="#DefaultMaterial-fx"/>
    </material>
  </library_materials>
  <library_geometries>
    <geometry id="mesh_0" name="" >
      <mesh>
        <source id="mesh_0-positions" name="mesh_0-positions">
          <float_array id="mesh_0-positions-array" count="2016"> 0.00937499851 -0.003250001 -0.00769999623 0.0223749988 -0.003250001 -0.00769999623 0.00137500092 -0.00400000066 -0.00377237052 0.0224249996 -0.00294500031 0 0.0223749988 -0.003250001 0.00770000368 0.0223749988 -0.003250001 -0.00769999623 0.0223749988 -0.00174999982 -0.00919999927 0.0223749988 0.00174999982 -0.00919999927 0.0224249996 -0.00144574046 -0.00580000132 0.0223749988 -0.00174999982 -0.00919999927 0.00937499851 0 -0.00924999639 0.0223749988 0.00174999982 -0.00919999927 0.0197749995 -0.00335000083 -0.00566618145 0.00137500092 -0.00400000066 -0.00377237052 0.0223749988 -0.003250001 -0.00769999623 0.00937499851 0.00324999914 -0.00769999623 0.00137500092 0.00400000066 -0.00377237052 0.0223749988 0.00324999914 -0.00769999623 0.00137500092 0.00400000066 -0.00377237052 0.00937499851 0.00324999914 -0.00769999623 -0.00912500173 0.00400000066 -0.0019999966 -0.000458691269 0.00269951113 -0.0061390847 -0.00912500173 0.00400000066 -0.0019999966 0.00937499851 0.00324999914 -0.00769999623 0.0224249996 0.00285499915 0 0.0223749988 0.00324999914 -0.00769999623 0.0223749988 0.00324999914 0.00770000368 0.0224249996 0.00241495296 -0.00543598086 0.0224249996 -0.00144574046 -0.00580000132 0.0223749988 0.00174999982 -0.00919999927 0.0224249996 0.00241495296 -0.00543598086 0.0223749988 0.00174999982 -0.00919999927 0.0223749988 0.00324999914 -0.00769999623 0.0224249996 0.00251422822 -0.00517265499 0.0224249996 0.00241495296 -0.00543598086 0.0223749988 0.00324999914 -0.00769999623 -0.00762499869 -0.00400000066 -0.0019999966 -0.00762499869 -0.00400000066 0.00200000405 -0.0224249959 -0.00210000016 0 -0.00762499869 -0.00400000066 -0.0019999966 -0.0224249959 -0.00210000016 0 -0.0224249959 -0.00185945816 -0.000975914299 -0.00762499869 -0.00400000066 -0.0019999966 0.00937499851 -0.003250001 -0.00769999623 0.00137500092 -0.00400000066 -0.00377237052 -0.000420875847 -0.00288649276 0.00599161536 -0.00762499869 -0.00400000066 0.00200000405 0.00937499851 -0.003250001 0.00770000368 0.00137500092 -0.00400000066 0.00377237797 0.0223749988 -0.003250001 0.00770000368 0.00937499851 -0.003250001 0.00770000368 0.00937499851 -0.003250001 0.00770000368 -0.00762499869 -0.00400000066 0.00200000405 0.00137500092 -0.00400000066 0.00377237797 0.00137500092 -0.00400000066 0.00377237797 0.0197749995 -0.00335000083 0.00613381714 0.0223749988 -0.003250001 0.00770000368 0.0223749988 0.00324999914 0.00770000368 0.00137500092 0.00400000066 0.00377237797 0.00937499851 0.00324999914 0.00770000368 0.0197749995 0.00334999897 0.00613381714 0.00137500092 0.00400000066 0.00377237797 0.0223749988 0.00324999914 0.00770000368 -0.0224249959 0.0015718732 -0.00139255822 -0.0224249959 0.00203897804 -0.000502564013 -0.00912500173 0.00400000066 -0.0019999966 -0.0224249959 0.0015718732 -0.00139255822 -0.00912500173 0.00400000066 -0.0019999966 -0.000458691269 0.00269951113 -0.0061390847 0.00937499851 0.00324999914 -0.00769999623 0.00937499851 0.00174999982 -0.00919999927 0.00257499889 0.00144335255 -0.00848956034 0.00257499889 0.00144335255 -0.00848956034 -0.000458691269 0.00269951113 -0.0061390847 0.00937499851 0.00324999914 -0.00769999623 0.00257499889 0.00144335255 -0.00848956034 -0.0224249959 0.0015718732 -0.00139255822 -0.000458691269 0.00269951113 -0.0061390847 0.0224249996 0.00285499915 0 0.0224249996 0.00277728215 -0.00258119404 0.0223749988 0.00324999914 -0.00769999623 0.0224249996 0.00277728215 0.00258119404 0.0224249996 0.00285499915 0 0.0223749988 0.00324999914 0.00770000368 0.0224249996 -0.00286728144 -0.00258119404 0.0224249996 -0.00294500031 0 0.0223749988 -0.003250001 -0.00769999623 0.0223749988 -0.00174999982 -0.00919999927 0.0224249996 -0.00238365307 -0.00559450686 0.0223749988 -0.003250001 -0.00769999623 0.0224249996 -0.00294500031 0 0.0224249996 -0.00286728144 0.00258119404 0.0223749988 -0.003250001 0.00770000368 0.00257499889 -0.00134677812 -0.00861744583 0.00937499851 -0.00174999982 -0.00919999927 0.00937499851 -0.003250001 -0.00769999623 0.00257499889 0.00134677812 0.00861744583 0.00937499851 0.00174999982 0.00919999927 0.00937499851 0.00324999914 0.00770000368 -0.00912500173 0.00400000066 0.00200000405 -0.0224249959 0.00203897804 0.000502564013 -0.0224249959 0.0015718732 0.00139255822 -0.00912500173 0.00400000066 0.00200000405 0.00937499851 0.00324999914 0.00770000368 0.00137500092 0.00400000066 0.00377237797 0.0138750002 0.00194999948 0.00900000334 0.00937499851 0.00324999914 0.00770000368 0.00937499851 0.00174999982 0.00919999927 -0.0224249959 -0.00210000016 0 -0.00762499869 -0.00400000066 0.00200000405 -0.0224249959 -0.00185945816 0.00097592175 -0.0224249959 -0.00185945816 0.00097592175 -0.00762499869 -0.00400000066 0.00200000405 -0.000420875847 -0.00288649276 0.00599161536 0.00937499851 0 0.00925000012 0.0223749988 -0.00174999982 0.00919999927 0.0223749988 0.00174999982 0.00919999927 0.0138750002 -0.00194999948 0.00900000334 0.00937499851 -0.00174999982 0.00919999927 0.00937499851 -0.003250001 0.00770000368 0.0197749995 0.00334999897 -0.00566618145 0.0223749988 0.00324999914 -0.00769999623 0.00137500092 0.00400000066 -0.00377237052 0.0224249996 0.00184833258 0.00576954335 0.0223749988 0.00174999982 0.00919999927 0.0224249996 0.00135573931 0.00580000132 0.0224249996 0.00184833258 0.00576954335 0.0224249996 0.00212090835 0.0056995824 0.0223749988 0.00174999982 0.00919999927 0.0224249996 0.00212090835 0.0056995824 0.0224249996 0.0022936482 0.00559452176 0.0223749988 0.00174999982 0.00919999927 0.0224249996 0.0022936482 0.00559452176 0.0223749988 0.00324999914 0.00770000368 0.0223749988 0.00174999982 0.00919999927 0.0224249996 0.0022936482 0.00559452176 0.0224249996 0.00242230669 0.00542203337 0.0223749988 0.00324999914 0.00770000368 0.0224249996 0.0025982596 -0.00468654186 0.0224249996 0.00251422822 -0.00517265499 0.0223749988 0.00324999914 -0.00769999623 0.0224249996 0.00277728215 -0.00258119404 0.0224249996 0.0025982596 -0.00468654186 0.0223749988 0.00324999914 -0.00769999623 0.0224249996 0.0025982596 0.00468654931 0.0224249996 0.00277728215 0.00258119404 0.0223749988 0.00324999914 0.00770000368 0.0224249996 -0.0026308205 -0.00506146252 0.0224249996 -0.00268825889 -0.00468654186 0.0223749988 -0.003250001 -0.00769999623 0.0224249996 -0.00268825889 -0.00468654186 0.0224249996 -0.00286728144 -0.00258119404 0.0223749988 -0.003250001 -0.00769999623 0.0224249996 -0.0025123246 -0.00542199612 0.0224249996 -0.0026308205 -0.00506146252 0.0223749988 -0.003250001 -0.00769999623 0.0224249996 -0.00238365307 -0.00559450686 0.0224249996 -0.0025123246 -0.00542199612 0.0223749988 -0.003250001 -0.00769999623 0.0224249996 -0.00193812326 -0.00576957315 0.0223749988 -0.00174999982 -0.00919999927 0.0224249996 -0.00144574046 -0.00580000132 0.0224249996 -0.00268825889 0.00468654931 0.0224249996 -0.0026041735 0.0051728636 0.0223749988 -0.003250001 0.00770000368 0.0224249996 -0.00286728144 0.00258119404 0.0224249996 -0.00268825889 0.00468654931 0.0223749988 -0.003250001 0.00770000368 0.00257499889 0 0.00925000012 0.00257499889 -0.000399986282 0.00920367986 0.00937499851 -0.00174999982 0.00919999927 0.00937499851 -0.003250001 0.00770000368 0.00937499851 -0.00174999982 0.00919999927 0.00257499889 -0.00144335255 0.00848956406 0.00257499889 -0.000988414511 0.00894413888 0.00257499889 -0.00144335255 0.00848956406 0.00937499851 -0.00174999982 0.00919999927 -0.000459857285 -0.00279505551 -0.00613196194 0.00257499889 -0.00134677812 -0.00861744583 0.00937499851 -0.003250001 -0.00769999623 0.00257499889 -0.00134677812 -0.00861744583 -0.000459857285 -0.00279505551 -0.00613196194 0.00250533968 -0.0013371408 -0.00860944763 0.00250533968 -0.000240728259 -0.00922071934 -0.0224249959 -0.000253127888 -0.00208468735 0.00257499889 0 -0.00924999639 0.00250533968 -0.000240728259 -0.00922071934 0.00250533968 -0.000846067443 -0.00901756063 -0.0224249959 -0.000253127888 -0.00208468735 -0.0224249959 -0.000253127888 -0.00208468735 0.00250533968 -0.000846067443 -0.00901756063 -0.0224249959 -0.00119293667 -0.00172826648 -0.0224249959 -0.00119293667 -0.00172826648 -0.000459857285 -0.00279505551 -0.00613196194 -0.0224249959 -0.00185945816 -0.000975914299 0.00250533968 -0.0013371408 -0.00860944763 -0.000459857285 -0.00279505551 -0.00613196194 -0.0224249959 -0.00119293667 -0.00172826648 0.00257499889 0.00134677812 0.00861744583 -0.000459857285 0.00270504504 0.00613197684 -0.0224249959 0.0015718732 0.00139255822 -0.000459857285 0.00270504504 0.00613197684 -0.00912500173 0.00400000066 0.00200000405 -0.0224249959 0.0015718732 0.00139255822 -0.000459857285 0.00270504504 0.00613197684 0.00257499889 0.00134677812 0.00861744583 0.00937499851 0.00324999914 0.00770000368 0.00937499851 0.00324999914 0.00770000368 -0.00912500173 0.00400000066 0.00200000405 -0.000459857285 0.00270504504 0.00613197684 0.0183749981 0.00194999948 0.00900000334 0.0223749988 0.00174999982 0.00919999927 0.0223749988 0.00324999914 0.00770000368 0.0224249996 -0.0014457386 0.00580000132 0.0223749988 -0.00174999982 0.00919999927 0.0224249996 -0.0018247515 0.00578385592 0.0224249996 -0.00219604746 0.005705446 0.0224249996 -0.0018247515 0.00578385592 0.0223749988 -0.00174999982 0.00919999927 0.0224249996 -0.00238155201 0.00559639931 0.0223749988 -0.00174999982 0.00919999927 0.0223749988 -0.003250001 0.00770000368 0.0224249996 -0.00238155201 0.00559639931 0.0224249996 -0.00219604746 0.005705446 0.0223749988 -0.00174999982 0.00919999927 0.0183749981 -0.00194999948 0.00900000334 0.0223749988 -0.003250001 0.00770000368 0.0223749988 -0.00174999982 0.00919999927 0.00257499889 0.000399986282 -0.00920367241 0.00937499851 0.00174999982 -0.00919999927 0.00257499889 0 -0.00924999639 0.00257499889 0.000399986282 -0.00920367241 0.00257499889 0.000874999911 -0.00901554152 0.00937499851 0.00174999982 -0.00919999927 0.00250533968 0.000981342047 -0.0089338012 -0.0224249959 0.00074467063 -0.00196353346 -0.0224249959 0.0015718732 -0.00139255822 0.00250533968 0.000981342047 -0.0089338012 0.00257499889 0.000874999911 -0.00901554152 -0.0224249959 0.00074467063 -0.00196353346 0.0224249996 0.00242230669 0.00542203337 0.0224249996 0.00254080631 0.00506152958 0.0223749988 0.00324999914 0.00770000368 0.0224249996 0.00254080631 0.00506152958 0.0224249996 0.0025982596 0.00468654931 0.0223749988 0.00324999914 0.00770000368 0.0224249996 -0.00221071951 -0.0056996569 0.0224249996 -0.00238365307 -0.00559450686 0.0223749988 -0.00174999982 -0.00919999927 0.0224249996 -0.00221071951 -0.0056996569 0.0223749988 -0.00174999982 -0.00919999927 0.0224249996 -0.00193812326 -0.00576957315 0.00257499889 -0.000874999911 0.00901554525 0.00257499889 -0.000988414511 0.00894413888 0.00937499851 -0.00174999982 0.00919999927 0.00257499889 -0.000399986282 0.00920367986 0.00257499889 -0.000874999911 0.00901554525 0.00937499851 -0.00174999982 0.00919999927 -0.000401496887 -0.00280242227 0.00613150746 -0.000420875847 -0.00288649276 0.00599161536 0.00937499851 -0.003250001 0.00770000368 0.00937499851 -0.003250001 0.00770000368 0.00257499889 -0.00144335255 0.00848956406 -0.000401496887 -0.00280242227 0.00613150746 -0.000401496887 -0.00280242227 0.00613150746 -0.0224249959 -0.00185945816 0.00097592175 -0.000420875847 -0.00288649276 0.00599161536 0.00250533968 -0.000981342047 0.00893380493 0.00257499889 -0.000874999911 0.00901554525 -0.0224249959 -0.00119293667 0.00172826648 0.00257499889 -0.000988414511 0.00894413888 0.00257499889 -0.000874999911 0.00901554525 0.00250533968 -0.000981342047 0.00893380493 -0.000478897244 -0.00287685916 -0.00599496812 0.00937499851 -0.003250001 -0.00769999623 -0.00762499869 -0.00400000066 -0.0019999966 -0.000478897244 -0.00287685916 -0.00599496812 -0.000459857285 -0.00279505551 -0.00613196194 0.00937499851 -0.003250001 -0.00769999623 -0.000478897244 -0.00287685916 -0.00599496812 -0.00762499869 -0.00400000066 -0.0019999966 -0.0224249959 -0.00185945816 -0.000975914299 -0.0224249959 -0.00185945816 -0.000975914299 -0.000459857285 -0.00279505551 -0.00613196194 -0.000478897244 -0.00287685916 -0.00599496812 0.00250533968 -0.000240728259 -0.00922071934 0.00257499889 -0.000852165744 -0.00902849808 0.00250533968 -0.000846067443 -0.00901756063 0.00257499889 0.000242462382 0.00923312455 0.00257499889 0 0.00925000012 0.00937499851 0.00174999982 0.00919999927 0.00257499889 0.000852165744 0.00902850181 0.00257499889 0.000242462382 0.00923312455 0.00937499851 0.00174999982 0.00919999927 0.00257499889 0.000874999911 0.00901554525 0.00937499851 0.00174999982 0.00919999927 0.00257499889 0.00134677812 0.00861744583 0.00257499889 0.000874999911 0.00901554525 0.00257499889 0.000852165744 0.00902850181 0.00937499851 0.00174999982 0.00919999927 0.0223749988 -0.003250001 0.00770000368 0.0224249996 -0.0026041735 0.0051728636 0.0224249996 -0.00250485539 0.00543616712 0.0224249996 -0.00250485539 0.00543616712 0.0224249996 -0.00238155201 0.00559639931 0.0223749988 -0.003250001 0.00770000368 0.00250533968 0.000397123396 -0.00919148326 -0.0224249959 0.00074467063 -0.00196353346 0.00257499889 0.000874999911 -0.00901554152 0.00257499889 0.000874999911 -0.00901554152 0.00257499889 0.000399986282 -0.00920367241 0.00250533968 0.000397123396 -0.00919148326 0.00250533968 0.000397123396 -0.00919148326 -0.0224249959 -0.000253127888 -0.00208468735 -0.0224249959 0.00074467063 -0.00196353346 0.00257499889 0 -0.00924999639 -0.0224249959 -0.000253127888 -0.00208468735 0.00250533968 0.000397123396 -0.00919148326 0.00250533968 0.000397123396 -0.00919148326 0.00257499889 0.000399986282 -0.00920367241 0.00257499889 0 -0.00924999639 0.00257499889 0.00144335255 -0.00848956034 0.00250533968 0.00143302418 -0.00848247856 -0.0224249959 0.0015718732 -0.00139255822 0.00250533968 0.00143302418 -0.00848247856 0.00250533968 0.000981342047 -0.0089338012 -0.0224249959 0.0015718732 -0.00139255822 0.00250533968 0.00143302418 -0.00848247856 0.00257499889 0.00144335255 -0.00848956034 0.00250533968 0.000981342047 -0.0089338012 0.00257499889 0.000988414511 -0.00894413516 0.00257499889 0.00144335255 -0.00848956034 0.00937499851 0.00174999982 -0.00919999927 0.00257499889 0.000988414511 -0.00894413516 0.00250533968 0.000981342047 -0.0089338012 0.00257499889 0.00144335255 -0.00848956034 0.00937499851 0.00174999982 -0.00919999927 0.00257499889 0.000874999911 -0.00901554152 0.00257499889 0.000988414511 -0.00894413516 0.00257499889 0.000874999911 -0.00901554152 0.00250533968 0.000981342047 -0.0089338012 0.00257499889 0.000988414511 -0.00894413516 0.00250533968 -0.000397123396 0.00919148326 -0.0224249959 -0.00119293667 0.00172826648 0.00257499889 -0.000874999911 0.00901554525 0.00250533968 -0.000397123396 0.00919148326 0.00257499889 -0.000874999911 0.00901554525 0.00257499889 -0.000399986282 0.00920367986 0.00250533968 -0.000397123396 0.00919148326 -0.0224249959 -0.000253127888 0.00208468735 -0.0224249959 -0.00119293667 0.00172826648 0.00250533968 -0.000397123396 0.00919148326 0.00257499889 -0.000399986282 0.00920367986 0.00257499889 0 0.00925000012 0.00257499889 0 0.00925000012 -0.0224249959 -0.000253127888 0.00208468735 0.00250533968 -0.000397123396 0.00919148326 -0.000488452613 -0.00278505683 0.00613107532 -0.0224249959 -0.00119293667 0.00172826648 -0.0224249959 -0.00185945816 0.00097592175 -0.000401496887 -0.00280242227 0.00613150746 -0.000488452613 -0.00278505683 0.00613107532 -0.0224249959 -0.00185945816 0.00097592175 -0.000488452613 -0.00278505683 0.00613107532 -0.000401496887 -0.00280242227 0.00613150746 0.00257499889 -0.00144335255 0.00848956406 0.00257499889 -0.000852165744 -0.00902849808 0.00257499889 -0.000242462382 -0.00923312083 0.00937499851 -0.00174999982 -0.00919999927 0.00257499889 -0.000242462382 -0.00923312083 0.00257499889 -0.000852165744 -0.00902849808 0.00250533968 -0.000240728259 -0.00922071934 0.00257499889 -0.000242462382 -0.00923312083 0.00257499889 0 -0.00924999639 0.00937499851 -0.00174999982 -0.00919999927 0.00257499889 -0.000242462382 -0.00923312083 0.00250533968 -0.000240728259 -0.00922071934 0.00257499889 0 -0.00924999639 0.00257499889 -0.000874999911 -0.00901554152 0.00937499851 -0.00174999982 -0.00919999927 0.00257499889 -0.00134677812 -0.00861744583 0.00257499889 -0.000874999911 -0.00901554152 0.00257499889 -0.000852165744 -0.00902849808 0.00937499851 -0.00174999982 -0.00919999927 0.00257499889 -0.000874999911 -0.00901554152 0.00250533968 -0.000846067443 -0.00901756063 0.00257499889 -0.000852165744 -0.00902849808 0.00257499889 -0.000874999911 -0.00901554152 0.00257499889 -0.00134677812 -0.00861744583 0.00250533968 -0.0013371408 -0.00860944763 -0.0224249959 -0.00119293667 -0.00172826648 0.00257499889 -0.000874999911 -0.00901554152 0.00250533968 -0.0013371408 -0.00860944763 0.00257499889 -0.000874999911 -0.00901554152 -0.0224249959 -0.00119293667 -0.00172826648 0.00250533968 -0.000846067443 -0.00901756063 -0.0224249959 -0.000253127888 0.00208468735 0.00250533968 0.000240728259 0.00922071934 -0.0224249959 0.00074467063 0.00196353346 0.00250533968 0.000240728259 0.00922071934 -0.0224249959 -0.000253127888 0.00208468735 0.00257499889 0 0.00925000012 0.00257499889 0 0.00925000012 0.00257499889 0.000242462382 0.00923312455 0.00250533968 0.000240728259 0.00922071934 0.00250533968 0.0013371408 0.00860945135 0.00257499889 0.00134677812 0.00861744583 -0.0224249959 0.0015718732 0.00139255822 0.00250533968 0.0013371408 0.00860945135 -0.0224249959 0.0015718732 0.00139255822 0.00257499889 0.000874999911 0.00901554525 0.00250533968 0.0013371408 0.00860945135 0.00257499889 0.000874999911 0.00901554525 0.00257499889 0.00134677812 0.00861744583 -0.0224249959 0.0015718732 0.00139255822 -0.0224249959 0.00074467063 0.00196353346 0.00250533968 0.000846067443 0.00901756436 0.00250533968 0.000846067443 0.00901756436 0.00257499889 0.000874999911 0.00901554525 -0.0224249959 0.0015718732 0.00139255822 0.00257499889 0.000852165744 0.00902850181 0.00257499889 0.000874999911 0.00901554525 0.00250533968 0.000846067443 0.00901756436 0.00250533968 0.000240728259 0.00922071934 0.00250533968 0.000846067443 0.00901756436 -0.0224249959 0.00074467063 0.00196353346 0.00250533968 0.000846067443 0.00901756436 0.00257499889 0.000242462382 0.00923312455 0.00257499889 0.000852165744 0.00902850181 0.00250533968 0.000846067443 0.00901756436 0.00250533968 0.000240728259 0.00922071934 0.00257499889 0.000242462382 0.00923312455 -0.000488452613 -0.00278505683 0.00613107532 0.00250533968 -0.00143302418 0.00848248601 -0.0224249959 -0.00119293667 0.00172826648 0.00250533968 -0.00143302418 0.00848248601 -0.000488452613 -0.00278505683 0.00613107532 0.00257499889 -0.00144335255 0.00848956406 0.00250533968 -0.00143302418 0.00848248601 0.00250533968 -0.000981342047 0.00893380493 -0.0224249959 -0.00119293667 0.00172826648 0.00250533968 -0.00143302418 0.00848248601 0.00257499889 -0.00144335255 0.00848956406 0.00257499889 -0.000988414511 0.00894413888 0.00257499889 -0.000988414511 0.00894413888 0.00250533968 -0.000981342047 0.00893380493 0.00250533968 -0.00143302418 0.00848248601 0.0223749988 -0.00174999982 -0.00919999927 0.00937499851 -0.003250001 -0.00769999623 0.00937499851 -0.00174999982 -0.00919999927 0.0223749988 -0.00174999982 -0.00919999927 0.0223749988 -0.003250001 -0.00769999623 0.00937499851 -0.003250001 -0.00769999623 0.0223749988 -0.00174999982 -0.00919999927 0.00937499851 -0.00174999982 -0.00919999927 0.00257499889 0 -0.00924999639 0.00257499889 0 -0.00924999639 0.00937499851 0 -0.00924999639 0.0223749988 -0.00174999982 -0.00919999927 0.0197749995 -0.00335000083 0.00613381714 0.0197749995 -0.00335000083 -0.00566618145 0.0223749988 -0.003250001 0.00770000368 0.0197749995 -0.00335000083 -0.00566618145 0.0223749988 -0.003250001 -0.00769999623 0.0223749988 -0.003250001 0.00770000368 0.00937499851 0.00174999982 -0.00919999927 0.00937499851 0 -0.00924999639 0.00257499889 0 -0.00924999639 0.00937499851 0.00174999982 -0.00919999927 0.0223749988 0.00174999982 -0.00919999927 0.00937499851 0 -0.00924999639 0.0223749988 0.00324999914 -0.00769999623 0.0223749988 0.00174999982 -0.00919999927 0.00937499851 0.00174999982 -0.00919999927 0.00937499851 0.00174999982 -0.00919999927 0.00937499851 0.00324999914 -0.00769999623 0.0223749988 0.00324999914 -0.00769999623 0.00137500092 -0.00400000066 0.00377237797 0.0197749995 -0.00335000083 -0.00566618145 0.0197749995 -0.00335000083 0.00613381714 0.00137500092 -0.00400000066 -0.00377237052 0.0197749995 -0.00335000083 -0.00566618145 0.00137500092 -0.00400000066 0.00377237797 0.00137500092 -0.00400000066 0.00377237797 -0.00762499869 -0.00400000066 -0.0019999966 0.00137500092 -0.00400000066 -0.00377237052 -0.00762499869 -0.00400000066 -0.0019999966 0.00137500092 -0.00400000066 0.00377237797 -0.00762499869 -0.00400000066 0.00200000405 0.0223749988 -0.00174999982 0.00919999927 0.0224249996 -0.0014457386 0.00580000132 0.0224249996 0.00135573931 0.00580000132 0.0223749988 0.00174999982 0.00919999927 0.0223749988 -0.00174999982 0.00919999927 0.0224249996 0.00135573931 0.00580000132 -0.00912500173 0.00400000066 0.00200000405 -0.0224249959 0.00203897804 -0.000502564013 -0.0224249959 0.00203897804 0.000502564013 -0.00912500173 0.00400000066 -0.0019999966 -0.0224249959 0.00203897804 -0.000502564013 -0.00912500173 0.00400000066 0.00200000405 -0.00912500173 0.00400000066 0.00200000405 0.00137500092 0.00400000066 -0.00377237052 -0.00912500173 0.00400000066 -0.0019999966 0.00137500092 0.00400000066 0.00377237797 0.00137500092 0.00400000066 -0.00377237052 -0.00912500173 0.00400000066 0.00200000405 0.00937499851 0 0.00925000012 0.0223749988 0.00174999982 0.00919999927 0.00937499851 0.00174999982 0.00919999927 0.00937499851 0.00174999982 0.00919999927 0.00257499889 0 0.00925000012 0.00937499851 0 0.00925000012 0.00937499851 0 0.00925000012 0.00937499851 -0.00174999982 0.00919999927 0.0223749988 -0.00174999982 0.00919999927 0.00937499851 0 0.00925000012 0.00257499889 0 0.00925000012 0.00937499851 -0.00174999982 0.00919999927 0.0197749995 0.00334999897 -0.00566618145 0.0197749995 0.00334999897 0.00613381714 0.0223749988 0.00324999914 0.00770000368 0.0197749995 0.00334999897 -0.00566618145 0.0223749988 0.00324999914 0.00770000368 0.0223749988 0.00324999914 -0.00769999623 0.0197749995 0.00334999897 -0.00566618145 0.00137500092 0.00400000066 -0.00377237052 0.00137500092 0.00400000066 0.00377237797 0.0197749995 0.00334999897 0.00613381714 0.0197749995 0.00334999897 -0.00566618145 0.00137500092 0.00400000066 0.00377237797 0.00937499851 0.00324999914 0.00770000368 0.0138750002 0.00194999948 0.00900000334 0.0183749981 0.00194999948 0.00900000334 0.0223749988 0.00324999914 0.00770000368 0.00937499851 0.00324999914 0.00770000368 0.0183749981 0.00194999948 0.00900000334 0.0183749981 0.00194999948 0.00900000334 0.00937499851 0.00174999982 0.00919999927 0.0223749988 0.00174999982 0.00919999927 0.0183749981 0.00194999948 0.00900000334 0.0138750002 0.00194999948 0.00900000334 0.00937499851 0.00174999982 0.00919999927 0.0183749981 -0.00194999948 0.00900000334 0.0138750002 -0.00194999948 0.00900000334 0.00937499851 -0.003250001 0.00770000368 0.0183749981 -0.00194999948 0.00900000334 0.00937499851 -0.003250001 0.00770000368 0.0223749988 -0.003250001 0.00770000368 0.0183749981 -0.00194999948 0.00900000334 0.0223749988 -0.00174999982 0.00919999927 0.00937499851 -0.00174999982 0.00919999927 0.00937499851 -0.00174999982 0.00919999927 0.0138750002 -0.00194999948 0.00900000334 0.0183749981 -0.00194999948 0.00900000334 -0.0224249959 -0.000253127888 0.00208468735 -0.0224249959 0.0015718732 0.00139255822 -0.0224249959 0.00203897804 0.000502564013 -0.0224249959 -0.000253127888 0.00208468735 -0.0224249959 -0.00185945816 0.00097592175 -0.0224249959 -0.00119293667 0.00172826648 -0.0224249959 -0.000253127888 -0.00208468735 -0.0224249959 -0.00119293667 -0.00172826648 -0.0224249959 -0.000253127888 0.00208468735 -0.0224249959 0.00203897804 0.000502564013 -0.0224249959 0.00203897804 -0.000502564013 -0.0224249959 -0.000253127888 0.00208468735 -0.0224249959 -0.000253127888 0.00208468735 -0.0224249959 -0.00185945816 -0.000975914299 -0.0224249959 -0.00210000016 0 -0.0224249959 0.00074467063 -0.00196353346 -0.0224249959 -0.000253127888 -0.00208468735 -0.0224249959 -0.000253127888 0.00208468735 -0.0224249959 0.00203897804 -0.000502564013 -0.0224249959 0.0015718732 -0.00139255822 -0.0224249959 -0.000253127888 0.00208468735 -0.0224249959 -0.000253127888 0.00208468735 -0.0224249959 0.0015718732 -0.00139255822 -0.0224249959 0.00074467063 -0.00196353346 -0.0224249959 -0.000253127888 0.00208468735 -0.0224249959 0.00074467063 0.00196353346 -0.0224249959 0.0015718732 0.00139255822 -0.0224249959 -0.00210000016 0 -0.0224249959 -0.00185945816 0.00097592175 -0.0224249959 -0.000253127888 0.00208468735 -0.0224249959 -0.000253127888 0.00208468735 -0.0224249959 -0.00119293667 -0.00172826648 -0.0224249959 -0.00185945816 -0.000975914299 0.0224249996 0.00135573931 0.00580000132 0.0224249996 -0.0014457386 0.00580000132 0.0224249996 -0.00250485539 0.00543616712 0.0224249996 0.00285499915 0 0.0224249996 0.00277728215 0.00258119404 0.0224249996 -0.00250485539 0.00543616712 0.0224249996 -0.00250485539 0.00543616712 0.0224249996 0.00277728215 -0.00258119404 0.0224249996 0.00285499915 0 0.0224249996 -0.00250485539 0.00543616712 0.0224249996 0.00241495296 -0.00543598086 0.0224249996 0.00251422822 -0.00517265499 0.0224249996 -0.00286728144 -0.00258119404 0.0224249996 -0.00268825889 -0.00468654186 0.0224249996 -0.00250485539 0.00543616712 0.0224249996 0.00212090835 0.0056995824 0.0224249996 0.00184833258 0.00576954335 0.0224249996 -0.00250485539 0.00543616712 0.0224249996 -0.00144574046 -0.00580000132 0.0224249996 0.00241495296 -0.00543598086 0.0224249996 -0.00250485539 0.00543616712 0.0224249996 0.00277728215 0.00258119404 0.0224249996 0.0025982596 0.00468654931 0.0224249996 -0.00250485539 0.00543616712 0.0224249996 0.0025982596 0.00468654931 0.0224249996 0.00254080631 0.00506152958 0.0224249996 -0.00250485539 0.00543616712 0.0224249996 -0.00250485539 0.00543616712 0.0224249996 -0.0018247515 0.00578385592 0.0224249996 -0.00219604746 0.005705446 0.0224249996 -0.00250485539 0.00543616712 0.0224249996 0.0022936482 0.00559452176 0.0224249996 0.00212090835 0.0056995824 0.0224249996 -0.00250485539 0.00543616712 0.0224249996 0.0025982596 -0.00468654186 0.0224249996 0.00277728215 -0.00258119404 0.0224249996 -0.00294500031 0 0.0224249996 -0.00286728144 -0.00258119404 0.0224249996 -0.00250485539 0.00543616712 0.0224249996 -0.00250485539 0.00543616712 0.0224249996 -0.0025123246 -0.00542199612 0.0224249996 -0.00238365307 -0.00559450686 0.0224249996 -0.00250485539 0.00543616712 0.0224249996 -0.00286728144 0.00258119404 0.0224249996 -0.00294500031 0 0.0224249996 -0.00250485539 0.00543616712 0.0224249996 -0.00268825889 0.00468654931 0.0224249996 -0.00286728144 0.00258119404 0.0224249996 -0.00250485539 0.00543616712 0.0224249996 0.00184833258 0.00576954335 0.0224249996 0.00135573931 0.00580000132 0.0224249996 0.00242230669 0.00542203337 0.0224249996 0.0022936482 0.00559452176 0.0224249996 -0.00250485539 0.00543616712 0.0224249996 0.00251422822 -0.00517265499 0.0224249996 0.0025982596 -0.00468654186 0.0224249996 -0.00250485539 0.00543616712 0.0224249996 -0.00219604746 0.005705446 0.0224249996 -0.00238155201 0.00559639931 0.0224249996 -0.00250485539 0.00543616712 0.0224249996 -0.00250485539 0.00543616712 0.0224249996 -0.00268825889 -0.00468654186 0.0224249996 -0.0026308205 -0.00506146252 0.0224249996 -0.0026308205 -0.00506146252 0.0224249996 -0.0025123246 -0.00542199612 0.0224249996 -0.00250485539 0.00543616712 0.0224249996 -0.00250485539 0.00543616712 0.0224249996 -0.00193812326 -0.00576957315 0.0224249996 -0.00144574046 -0.00580000132 0.0224249996 -0.0026041735 0.0051728636 0.0224249996 -0.00268825889 0.00468654931 0.0224249996 -0.00250485539 0.00543616712 0.0224249996 -0.0014457386 0.00580000132 0.0224249996 -0.0018247515 0.00578385592 0.0224249996 -0.00250485539 0.00543616712 0.0224249996 -0.00250485539 0.00543616712 0.0224249996 -0.00221071951 -0.0056996569 0.0224249996 -0.00193812326 -0.00576957315 0.0224249996 -0.00250485539 0.00543616712 0.0224249996 0.00254080631 0.00506152958 0.0224249996 0.00242230669 0.00542203337 0.0224249996 -0.00238365307 -0.00559450686 0.0224249996 -0.00221071951 -0.0056996569 0.0224249996 -0.00250485539 0.00543616712 </float_array>
          <technique_common>
            <accessor count="672" offset="0" source="#mesh_0-positions-array" stride="3">
              <param name="X" type="float" />
              <param name="Y" type="float" />
              <param name="Z" type="float" />
            </accessor>
          </technique_common>
        </source>
        <source id="mesh_0-normals" name="mesh_0-normals">
          <float_array id="mesh_0-normals-array" count="2016"> 0 -0.982252061 -0.187565923 0 -0.982252061 -0.187565923 0 -0.982252061 -0.187565923 0.986827314 -0.161777318 0 0.986827314 -0.161777318 0 0.986827314 -0.161777318 0 0.999891877 0 -0.0147045497 0.999891877 0 -0.0147045497 0.999891877 0 -0.0147045497 0.00384590356 0 -0.999992549 0.00384590356 0 -0.999992549 0.00384590356 0 -0.999992549 0.0348295085 -0.999382555 -0.0046127052 0.0348295085 -0.999382555 -0.0046127052 0.0348295085 -0.999382555 -0.0046127052 0 0.982251942 -0.187566355 0 0.982251942 -0.187566355 0 0.982251942 -0.187566355 -0.0471126549 0.959103465 -0.2791076 -0.0471126549 0.959103465 -0.2791076 -0.0471126549 0.959103465 -0.2791076 -0.131998867 0.832567632 -0.537966013 -0.131998867 0.832567632 -0.537966013 -0.131998867 0.832567632 -0.537966013 0.992083132 0.125582278 0 0.992083132 0.125582278 0 0.992083132 0.125582278 0 0.99990797 0.00127362378 -0.0135076772 0.99990797 0.00127362378 -0.0135076772 0.99990797 0.00127362378 -0.0135076772 0.999739766 0.0161300208 -0.0161299799 0.999739766 0.0161300208 -0.0161299799 0.999739766 0.0161300208 -0.0161299799 0.999499619 0.0295961536 -0.0111579075 0.999499619 0.0295961536 -0.0111579075 0.999499619 0.0295961536 -0.0111579075 -0.127333432 -0.991859972 0 -0.127333432 -0.991859972 0 -0.127333432 -0.991859972 0 -0.155088514 -0.959193885 -0.236420646 -0.155088514 -0.959193885 -0.236420646 -0.155088514 -0.959193885 -0.236420646 -0.0597175471 -0.951040626 -0.303241819 -0.0597175471 -0.951040626 -0.303241819 -0.0597175471 -0.951040626 -0.303241819 -0.111030884 -0.887173772 0.447878063 -0.111030884 -0.887173772 0.447878063 -0.111030884 -0.887173772 0.447878063 0 -0.982252061 0.187565893 0 -0.982252061 0.187565893 0 -0.982252061 0.187565893 -0.0597175397 -0.951040626 0.303241789 -0.0597175397 -0.951040626 0.303241789 -0.0597175397 -0.951040626 0.303241789 0.0344559811 -0.999384344 0.00661013043 0.0344559811 -0.999384344 0.00661013043 0.0344559811 -0.999384344 0.00661013043 0 0.982251942 0.187566355 0 0.982251942 0.187566355 0 0.982251942 0.187566355 0.0344561227 0.999384344 0.00660992134 0.0344561227 0.999384344 0.00660992134 0.0344561227 0.999384344 0.00660992134 -0.17989555 0.871010542 -0.457141429 -0.17989555 0.871010542 -0.457141429 -0.17989555 0.871010542 -0.457141429 -0.170001298 0.780762017 -0.601257205 -0.170001298 0.780762017 -0.601257205 -0.170001298 0.780762017 -0.601257205 -0.105176374 0.703185737 -0.703183949 -0.105176374 0.703185737 -0.703183949 -0.105176374 0.703185737 -0.703183949 -0.139414534 0.787250519 -0.600666463 -0.139414534 0.787250519 -0.600666463 -0.139414534 0.787250519 -0.600666463 -0.174999923 0.756490469 -0.630156517 -0.174999923 0.756490469 -0.630156517 -0.174999923 0.756490469 -0.630156517 0.996830821 0.0795139 -0.00239407877 0.996830821 0.0795139 -0.00239407877 0.996830821 0.0795139 -0.00239407877 0.996830821 0.0795138702 0.00239407807 0.996830821 0.0795138702 0.00239407807 0.996830821 0.0795138702 0.00239407807 0.995686769 -0.0927366093 -0.00279226759 0.995686769 -0.0927366093 -0.00279226759 0.995686769 -0.0927366093 -0.00279226759 0.999716997 -0.0168201476 -0.0168201271 0.999716997 -0.0168201476 -0.0168201271 0.999716997 -0.0168201476 -0.0168201271 0.995686769 -0.092736572 0.00279226643 0.995686769 -0.092736572 0.00279226643 0.995686769 -0.092736572 0.00279226643 -0.101972744 -0.703421175 -0.703420341 -0.101972744 -0.703421175 -0.703420341 -0.101972744 -0.703421175 -0.703420341 -0.101972774 0.703419924 0.703421652 -0.101972774 0.703419924 0.703421652 -0.101972774 0.703419924 0.703421652 -0.179895788 0.871010482 0.45714134 -0.179895788 0.871010482 0.45714134 -0.179895788 0.871010482 0.45714134 -0.0471126549 0.959103465 0.2791076 -0.0471126549 0.959103465 0.2791076 -0.0471126549 0.959103465 0.2791076 -5.09129336e-07 0.707105935 0.707107663 -5.09129336e-07 0.707105935 0.707107663 -5.09129336e-07 0.707105935 0.707107663 -0.155088454 -0.959194243 0.236419052 -0.155088454 -0.959194243 0.236419052 -0.155088454 -0.959194243 0.236419052 -0.15743266 -0.84041065 0.518579602 -0.15743266 -0.84041065 0.518579602 -0.15743266 -0.84041065 0.518579602 0.00384619017 0 0.999992549 0.00384619017 0 0.999992549 0.00384619017 0 0.999992549 -4.70423316e-07 -0.707105458 0.70710814 -4.70423316e-07 -0.707105458 0.70710814 -4.70423316e-07 -0.707105458 0.70710814 0.034829624 0.999382555 -0.0046125548 0.034829624 0.999382555 -0.0046125548 0.034829624 0.999382555 -0.0046125548 0.99989301 0.00090273848 0.0145998849 0.99989301 0.00090273848 0.0145998849 0.99989301 0.00090273848 0.0145998849 0.999885142 0.00376834883 0.014681912 0.999885142 0.00376834883 0.014681912 0.999885142 0.00376834883 0.014681912 0.999840379 0.00928467605 0.0152657907 0.999840379 0.00928467605 0.0152657907 0.999840379 0.00928467605 0.0152657907 0.999733448 0.0163259823 0.0163260251 0.999733448 0.0163259823 0.0163260251 0.999733448 0.0163259823 0.0163260251 0.99969542 0.0197820067 0.0147553291 0.99969542 0.0197820067 0.0147553291 0.99969542 0.0197820067 0.0147553291 0.999065101 0.042599082 -0.00736384001 0.999065101 0.042599082 -0.00736384001 0.999065101 0.042599082 -0.00736384001 0.998476267 0.0549842902 -0.00467544002 0.998476267 0.0549842902 -0.00467544002 0.998476267 0.0549842902 -0.00467544002 0.998476267 0.0549843386 0.00467542792 0.998476267 0.0549843386 0.00467542792 0.998476267 0.0549843386 0.00467542792 0.998780668 -0.0487976409 -0.0074758688 0.998780668 -0.0487976409 -0.0074758688 0.998780668 -0.0487976409 -0.0074758688 0.998123467 -0.0610122867 -0.00518801436 0.998123467 -0.0610122867 -0.00518801436 0.998123467 -0.0610122867 -0.00518801436 0.999373734 -0.0336182229 -0.011049238 0.999373734 -0.0336182229 -0.011049238 0.999373734 -0.0336182229 -0.011049238 0.999672532 -0.0205125045 -0.0152997728 0.999672532 -0.0205125045 -0.0152997728 0.999672532 -0.0205125045 -0.0152997728 0.999892652 -0.000903711829 -0.0146236895 0.999892652 -0.000903711829 -0.0146236895 0.999892652 -0.000903711829 -0.0146236895 0.998903811 -0.0461276509 0.00797562767 0.998903811 -0.0461276509 0.00797562767 0.998903811 -0.0461276509 0.00797562767 0.998123467 -0.0610123575 0.00518800225 0.998123467 -0.0610123575 0.00518800225 0.998123467 -0.0610123575 0.00518800225 -0.0222950149 -0.115007237 0.993114471 -0.0222950149 -0.115007237 0.993114471 -0.0222950149 -0.115007237 0.993114471 -0.105176121 -0.703183591 0.703186214 -0.105176121 -0.703183591 0.703186214 -0.105176121 -0.703183591 0.703186214 -0.10519252 -0.702902794 0.703464389 -0.10519252 -0.702902794 0.703464389 -0.10519252 -0.702902794 0.703464389 -0.134128004 -0.776196003 -0.616059601 -0.134128004 -0.776196003 -0.616059601 -0.134128004 -0.776196003 -0.616059601 -0.176895306 -0.741008639 -0.647776365 -0.176895306 -0.741008639 -0.647776365 -0.176895306 -0.741008639 -0.647776365 -0.274979055 -0.0372721143 -0.960727513 -0.274979055 -0.0372721143 -0.960727513 -0.274979055 -0.0372721143 -0.960727513 -0.26175037 -0.307077944 -0.914980888 -0.26175037 -0.307077944 -0.914980888 -0.26175037 -0.307077944 -0.914980888 -0.259272546 -0.34247756 -0.903043091 -0.259272546 -0.34247756 -0.903043091 -0.259272546 -0.34247756 -0.903043091 -0.184328407 -0.735686898 -0.651757419 -0.184328407 -0.735686898 -0.651757419 -0.184328407 -0.735686898 -0.651757419 -0.184500426 -0.73449862 -0.65304774 -0.184500426 -0.73449862 -0.65304774 -0.184500426 -0.73449862 -0.65304774 -0.174581751 0.758599222 0.627732813 -0.174581751 0.758599222 0.627732813 -0.174581751 0.758599222 0.627732813 -0.170005307 0.780792236 0.601216853 -0.170005307 0.780792236 0.601216853 -0.170005307 0.780792236 0.601216853 -0.139367804 0.787403762 0.600476444 -0.139367804 0.787403762 0.600476444 -0.139367804 0.787403762 0.600476444 -0.131850854 0.832875192 0.537526071 -0.131850854 0.832875192 0.537526071 -0.131850854 0.832875192 0.537526071 5.72770603e-07 0.707105935 0.707107723 5.72770603e-07 0.707105935 0.707107723 5.72770603e-07 0.707105935 0.707107723 0.999892533 -0.000624014472 0.0146487178 0.999892533 -0.000624014472 0.0146487178 0.999892533 -0.000624014472 0.0146487178 0.999887109 -0.0031049489 0.0147029255 0.999887109 -0.0031049489 0.0147029255 0.999887109 -0.0031049489 0.0147029255 0.999716997 -0.0168188661 0.0168189257 0.999716997 -0.0168188661 0.0168189257 0.999716997 -0.0168188661 0.0168189257 0.999839067 -0.00909174141 0.0154663976 0.999839067 -0.00909174141 0.0154663976 0.999839067 -0.00909174141 0.0154663976 5.29226327e-07 -0.707105458 0.70710808 5.29226327e-07 -0.707105458 0.70710808 5.29226327e-07 -0.707105458 0.70710808 -0.0222979132 0.115016356 -0.993113279 -0.0222979132 0.115016356 -0.993113279 -0.0222979132 0.115016356 -0.993113279 -0.0724115297 0.367258877 -0.927295744 -0.0724115297 0.367258877 -0.927295744 -0.0724115297 0.367258877 -0.927295744 -0.229220808 0.552938938 -0.801072061 -0.229220808 0.552938938 -0.801072061 -0.229220808 0.552938938 -0.801072061 -0.239271775 0.488331378 -0.839214802 -0.239271775 0.488331378 -0.839214802 -0.239271775 0.488331378 -0.839214802 0.999443114 0.0316992216 0.0104197124 0.999443114 0.0316992216 0.0104197124 0.999443114 0.0316992216 0.0104197124 0.998969615 0.0448599011 0.00687329238 0.998969615 0.0448599011 0.00687329238 0.998969615 0.0448599011 0.00687329238 0.999834955 -0.00943956431 -0.0155246491 0.999834955 -0.00943956431 -0.0155246491 0.999834955 -0.00943956431 -0.0155246491 0.999883533 -0.00379130617 -0.0147819128 0.999883533 -0.00379130617 -0.0147819128 0.999883533 -0.00379130617 -0.0147819128 -0.0911325961 -0.530581057 0.842720926 -0.0911325961 -0.530581057 0.842720926 -0.0911325961 -0.530581057 0.842720926 -0.0724117607 -0.367265165 0.927293301 -0.0724117607 -0.367265165 0.927293301 -0.0724117607 -0.367265165 0.927293301 -0.122607313 -0.84307003 0.523641467 -0.122607313 -0.84307003 0.523641467 -0.122607313 -0.84307003 0.523641467 -0.13445428 -0.775601745 0.616736472 -0.13445428 -0.775601745 0.616736472 -0.13445428 -0.775601745 0.616736472 -0.158626422 -0.836418986 0.524634123 -0.158626422 -0.836418986 0.524634123 -0.158626422 -0.836418986 0.524634123 -0.238389432 -0.488864034 0.839155853 -0.238389432 -0.488864034 0.839155853 -0.238389432 -0.488864034 0.839155853 -0.176804945 -0.524404407 0.832910597 -0.176804945 -0.524404407 0.832910597 -0.176804945 -0.524404407 0.832910597 -0.111136399 -0.887012422 -0.448171496 -0.111136399 -0.887012422 -0.448171496 -0.111136399 -0.887012422 -0.448171496 -0.122184165 -0.844576776 -0.521307051 -0.122184165 -0.844576776 -0.521307051 -0.122184165 -0.844576776 -0.521307051 -0.157443896 -0.840764105 -0.518002987 -0.157443896 -0.840764105 -0.518002987 -0.157443896 -0.840764105 -0.518002987 -0.158304811 -0.837910712 -0.522345901 -0.158304811 -0.837910712 -0.522345901 -0.158304811 -0.837910712 -0.522345901 -0.174012452 -0.313316584 -0.93356967 -0.174012452 -0.313316584 -0.93356967 -0.174012452 -0.313316584 -0.93356967 -0.0105328253 0.0694289282 0.997531295 -0.0105328253 0.0694289282 0.997531295 -0.0105328253 0.0694289282 0.997531295 -0.0657762438 0.317480862 0.945980549 -0.0657762438 0.317480862 0.945980549 -0.0657762438 0.317480862 0.945980549 -0.103161864 0.641464651 0.760184586 -0.103161864 0.641464651 0.760184586 -0.103161864 0.641464651 0.760184586 -0.0867666826 0.491647124 0.866460979 -0.0867666826 0.491647124 0.866460979 -0.0867666826 0.491647124 0.866460979 0.999442041 -0.0312513523 0.0117880162 0.999442041 -0.0312513523 0.0117880162 0.999442041 -0.0312513523 0.0117880162 0.999678373 -0.0200965237 0.0154648665 0.999678373 -0.0200965237 0.0154648665 0.999678373 -0.0200965237 0.0154648665 -0.254357427 0.366572767 -0.894945025 -0.254357427 0.366572767 -0.894945025 -0.254357427 0.366572767 -0.894945025 -0.17507489 0.362538368 -0.915376842 -0.17507489 0.362538368 -0.915376842 -0.17507489 0.362538368 -0.915376842 -0.275092095 0.115885496 -0.954408109 -0.275092095 0.115885496 -0.954408109 -0.275092095 0.115885496 -0.954408109 -0.275199831 0.0927201509 -0.956905484 -0.275199831 0.0927201509 -0.956905484 -0.275199831 0.0927201509 -0.956905484 -0.17576918 0.113253862 -0.977895021 -0.17576918 0.113253862 -0.977895021 -0.17576918 0.113253862 -0.977895021 -0.176104322 0.753028214 -0.633984089 -0.176104322 0.753028214 -0.633984089 -0.176104322 0.753028214 -0.633984089 -0.193508908 0.693465173 -0.694017589 -0.193508908 0.693465173 -0.694017589 -0.193508908 0.693465173 -0.694017589 -0.174019977 0.696040571 -0.696594954 -0.174019977 0.696040571 -0.696594954 -0.174019977 0.696040571 -0.696594954 -0.1051929 0.702902794 -0.703464389 -0.1051929 0.702902794 -0.703464389 -0.1051929 0.702902794 -0.703464389 -0.17400904 0.696041048 -0.696597219 -0.17400904 0.696041048 -0.696597219 -0.17400904 0.696041048 -0.696597219 -0.0911330655 0.530580997 -0.842720926 -0.0911330655 0.530580997 -0.842720926 -0.0911330655 0.530580997 -0.842720926 -0.17680499 0.524404407 -0.832910597 -0.17680499 0.524404407 -0.832910597 -0.17680499 0.524404407 -0.832910597 -0.256058186 -0.366626978 0.89443779 -0.256058186 -0.366626978 0.89443779 -0.256058186 -0.366626978 0.89443779 -0.175169542 -0.362538368 0.915358722 -0.175169542 -0.362538368 0.915358722 -0.175169542 -0.362538368 0.915358722 -0.259396285 -0.342465758 0.903012156 -0.259396285 -0.342465758 0.903012156 -0.259396285 -0.342465758 0.903012156 -0.175870374 -0.113242812 0.977878153 -0.175870374 -0.113242812 0.977878153 -0.175870374 -0.113242812 0.977878153 -0.273451358 -0.0931041613 0.957369328 -0.273451358 -0.0931041613 0.957369328 -0.273451358 -0.0931041613 0.957369328 -0.184211642 -0.73570013 0.651775599 -0.184211642 -0.73570013 0.651775599 -0.184211642 -0.73570013 0.651775599 -0.16528064 -0.813760638 0.55720365 -0.16528064 -0.813760638 0.55720365 -0.16528064 -0.813760638 0.55720365 -0.154689923 -0.758851826 0.632625401 -0.154689923 -0.758851826 0.632625401 -0.154689923 -0.758851826 0.632625401 -0.0657767579 -0.317480862 -0.945980549 -0.0657767579 -0.317480862 -0.945980549 -0.0657767579 -0.317480862 -0.945980549 -0.174004346 -0.313316196 -0.933571339 -0.174004346 -0.313316196 -0.933571339 -0.174004346 -0.313316196 -0.933571339 -0.010533371 -0.0694289282 -0.997531295 -0.010533371 -0.0694289282 -0.997531295 -0.010533371 -0.0694289282 -0.997531295 -0.17651394 -0.0683425665 -0.981922686 -0.17651394 -0.0683425665 -0.981922686 -0.17651394 -0.0683425665 -0.981922686 -0.103161909 -0.641461134 -0.760187507 -0.103161909 -0.641461134 -0.760187507 -0.103161909 -0.641461134 -0.760187507 -0.0867671594 -0.491647124 -0.866460979 -0.0867671594 -0.491647124 -0.866460979 -0.0867671594 -0.491647124 -0.866460979 -0.17692934 -0.485722542 -0.856019676 -0.17692934 -0.485722542 -0.856019676 -0.17692934 -0.485722542 -0.856019676 -0.174266204 -0.635034084 -0.752570987 -0.174266204 -0.635034084 -0.752570987 -0.174266204 -0.635034084 -0.752570987 -0.210602313 -0.627177715 -0.749863207 -0.210602313 -0.627177715 -0.749863207 -0.210602313 -0.627177715 -0.749863207 -0.220180437 -0.584611237 -0.780865133 -0.220180437 -0.584611237 -0.780865133 -0.220180437 -0.584611237 -0.780865133 -0.27545464 0.115872867 0.954305112 -0.27545464 0.115872867 0.954305112 -0.27545464 0.115872867 0.954305112 -0.275676847 0.0370617285 0.960535586 -0.275676847 0.0370617285 0.960535586 -0.275676847 0.0370617285 0.960535586 -0.176564798 0.0683419257 0.981913567 -0.176564798 0.0683419257 0.981913567 -0.176564798 0.0683419257 0.981913567 -0.176911354 0.751498282 0.635572672 -0.176911354 0.751498282 0.635572672 -0.176911354 0.751498282 0.635572672 -0.211153895 0.627051234 0.749813855 -0.211153895 0.627051234 0.749813855 -0.211153895 0.627051234 0.749813855 -0.174227282 0.635042012 0.752573192 -0.174227282 0.635042012 0.752573192 -0.174227282 0.635042012 0.752573192 -0.228928238 0.55297786 0.801128805 -0.228928238 0.55297786 0.801128805 -0.228928238 0.55297786 0.801128805 -0.221153766 0.586819649 0.778931141 -0.221153766 0.586819649 0.778931141 -0.221153766 0.586819649 0.778931141 -0.176929325 0.485722542 0.856019676 -0.176929325 0.485722542 0.856019676 -0.176929325 0.485722542 0.856019676 -0.260252148 0.307201743 0.915366471 -0.260252148 0.307201743 0.915366471 -0.260252148 0.307201743 0.915366471 -0.174012482 0.313315749 0.933569968 -0.174012482 0.313315749 0.933569968 -0.174012482 0.313315749 0.933569968 -0.174052894 0.313309163 0.933564663 -0.174052894 0.313309163 0.933564663 -0.174052894 0.313309163 0.933564663 -0.184778631 -0.731774926 0.656020045 -0.184778631 -0.731774926 0.656020045 -0.184778631 -0.731774926 0.656020045 -0.175691828 -0.740043819 0.649205267 -0.175691828 -0.740043819 0.649205267 -0.175691828 -0.740043819 0.649205267 -0.19465968 -0.69330132 0.693859339 -0.19465968 -0.69330132 0.693859339 -0.19465968 -0.69330132 0.693859339 -0.173983812 -0.696044207 0.696600378 -0.173983812 -0.696044207 0.696600378 -0.173983812 -0.696044207 0.696600378 -0.1740091 -0.696039081 0.696599185 -0.1740091 -0.696039081 0.696599185 -0.1740091 -0.696039081 0.696599185 -0 -0.707107246 -0.707106411 -0 -0.707107246 -0.707106411 -0 -0.707107246 -0.707106411 0 -0.707107246 -0.707106411 0 -0.707107246 -0.707106411 0 -0.707107246 -0.707106411 -0 -0.028558135 -0.999592125 -0 -0.028558135 -0.999592125 -0 -0.028558135 -0.999592125 0 -0.0285581332 -0.999592125 0 -0.0285581332 -0.999592125 0 -0.0285581332 -0.999592125 0.0384330638 -0.999261081 0 0.0384330638 -0.999261081 0 0.0384330638 -0.999261081 0 0.0384330675 -0.9992612 0 0.0384330675 -0.9992612 0 0.0384330675 -0.9992612 0 0 0.0285581332 -0.999592125 0 0.0285581332 -0.999592125 0 0.0285581332 -0.999592125 0 0.028558135 -0.999592125 0 0.028558135 -0.999592125 0 0.028558135 -0.999592125 0 0.707107604 -0.707105935 0 0.707107604 -0.707105935 0 0.707107604 -0.707105935 0 0.707107604 -0.707105935 0 0.707107604 -0.707105935 0 0.707107604 -0.707105935 0.0353040583 -0.999376595 0 0.0353040583 -0.999376595 0 0.0353040583 -0.999376595 0 0.0353040546 -0.999376595 0 0.0353040546 -0.999376595 0 0.0353040546 -0.999376595 0 0 -1 -0 0 -1 -0 0 -1 -0 0 -1 0 0 -1 0 0 -1 0 0.999891937 0 0.0147045515 0.999891937 0 0.0147045515 0.999891937 0 0.0147045515 0.999891877 0 0.0147045497 0.999891877 0 0.0147045497 0.999891877 0 0.0147045497 -0.145868286 0.989304006 0 -0.145868286 0.989304006 0 -0.145868286 0.989304006 0 -0.145868301 0.989304066 0 -0.145868301 0.989304066 0 -0.145868301 0.989304066 0 0 1 0 0 1 0 0 1 0 0 1 0 0 1 0 0 1 0 0 0.0285602603 0.999592066 0 0.0285602603 0.999592066 0 0.0285602603 0.999592066 0 0.0285602603 0.999592125 0 0.0285602603 0.999592125 0 0.0285602603 0.999592125 0 -0.0285602603 0.999592066 0 -0.0285602603 0.999592066 0 -0.0285602603 0.999592066 0 -0.0285602603 0.999592125 0 -0.0285602603 0.999592125 0 -0.0285602603 0.999592125 0.0384330638 0.999261081 -0 0.0384330638 0.999261081 -0 0.0384330638 0.999261081 -0 0.0384330675 0.9992612 0 0.0384330675 0.9992612 0 0.0384330675 0.9992612 0 0.0353041589 0.999376595 0 0.0353041589 0.999376595 0 0.0353041589 0.999376595 0 0.0353041589 0.999376595 0 0.0353041589 0.999376595 0 0.0353041589 0.999376595 0 0 0.707106829 0.707106829 0 0.707106829 0.707106829 0 0.707106829 0.707106829 0 0.707106769 0.707106769 0 0.707106769 0.707106769 0 0.707106769 0.707106769 0 0.707100213 0.707113385 0 0.707100213 0.707113385 0 0.707100213 0.707113385 0 0.707100213 0.707113385 0 0.707100213 0.707113385 0 0.707100213 0.707113385 0 -0.707106292 0.707107246 0 -0.707106292 0.707107246 0 -0.707106292 0.707107246 0 -0.707106292 0.707107246 0 -0.707106292 0.707107246 0 -0.707106292 0.707107246 0 -0.707100213 0.707113385 0 -0.707100213 0.707113385 0 -0.707100213 0.707113385 0 -0.707100213 0.707113385 0 -0.707100213 0.707113385 0 -0.707100213 0.707113385 -1 0 0 -1 0 0 -1 0 0 -1 0 0 -1 0 0 -1 0 0 -1 0 0 -1 0 0 -1 0 0 -1 -0 -0 -1 -0 -0 -1 -0 -0 -1 0 0 -1 0 0 -1 0 0 -1 -0 0 -1 -0 0 -1 -0 0 -1 -0 0 -1 -0 0 -1 -0 0 -1 0 0 -1 0 0 -1 0 0 -1 0 0 -1 0 0 -1 0 0 -1 0 0 -1 0 0 -1 0 0 -1 0 0 -1 0 0 -1 0 0 1 0 0 1 0 0 1 0 0 1 0 0 1 0 0 1 0 0 1 0 0 1 0 0 1 0 0 1 0 0 1 0 0 1 0 0 1 -0 0 1 -0 0 1 -0 0 1 0 0 1 0 0 1 0 0 1 0 -0 1 0 -0 1 0 -0 1 0 0 1 0 0 1 0 0 1 0 0 1 0 0 1 0 0 1 0 0 1 0 0 1 0 0 1 0 0 1 0 0 1 0 0 1 0 0 1 0 0 1 0 0 1 -0 0 1 -0 0 1 -0 0 1 0 0 1 0 0 1 0 0 1 0 0 1 0 0 1 0 0 1 0 0 1 0 0 1 0 0 1 0 0 1 0 0 1 0 0 1 0 0 1 0 0 1 0 0 1 0 -0 1 0 -0 1 0 -0 1 0 0 1 0 0 1 0 0 1 0 0 1 0 0 1 0 0 1 -0 0 1 -0 0 1 -0 0 1 0 0 1 0 0 1 0 0 1 -0 0 1 -0 0 1 -0 0 1 0 0 1 0 0 1 0 0 1 0 0 1 0 0 1 0 0 1 0 0 1 0 0 1 0 0 1 -0 -0 1 -0 -0 1 -0 -0 </float_array>
          <technique_common>
            <accessor count="672" offset="0" source="#mesh_0-normals-array" stride="3">
              <param name="X" type="float" />
              <param name="Y" type="float" />
              <param name="Z" type="float" />
            </accessor>
          </technique_common>
        </source>
        <vertices id="mesh_0-vertices">
          <input semantic="POSITION" source="#mesh_0-positions" />
        </vertices>
        <polylist count="224" material="defaultMaterial">
          <input offset="0" semantic="VERTEX" source="#mesh_0-vertices" />
          <input offset="0" semantic="NORMAL" source="#mesh_0-normals" />
          <vcount>3 3 3 3 3 3 3 3 3 3 3 3 3 3 3 3 3 3 3 3 3 3 3 3 3 3 3 3 3 3 3 3 3 3 3 3 3 3 3 3 3 3 3 3 3 3 3 3 3 3 3 3 3 3 3 3 3 3 3 3 3 3 3 3 3 3 3 3 3 3 3 3 3 3 3 3 3 3 3 3 3 3 3 3 3 3 3 3 3 3 3 3 3 3 3 3 3 3 3 3 3 3 3 3 3 3 3 3 3 3 3 3 3 3 3 3 3 3 3 3 3 3 3 3 3 3 3 3 3 3 3 3 3 3 3 3 3 3 3 3 3 3 3 3 3 3 3 3 3 3 3 3 3 3 3 3 3 3 3 3 3 3 3 3 3 3 3 3 3 3 3 3 3 3 3 3 3 3 3 3 3 3 3 3 3 3 3 3 3 3 3 3 3 3 3 3 3 3 3 3 3 3 3 3 3 3 3 3 3 3 3 3 3 3 3 3 3 3 3 3 3 3 3 3 </vcount>
          <p>0 1 2 3 4 5 6 7 8 9 10 11 12 13 14 15 16 17 18 19 20 21 22 23 24 25 26 27 28 29 30 31 32 33 34 35 36 37 38 39 40 41 42 43 44 45 46 47 48 49 50 51 52 53 54 55 56 57 58 59 60 61 62 63 64 65 66 67 68 69 70 71 72 73 74 75 76 77 78 79 80 81 82 83 84 85 86 87 88 89 90 91 92 93 94 95 96 97 98 99 100 101 102 103 104 105 106 107 108 109 110 111 112 113 114 115 116 117 118 119 120 121 122 123 124 125 126 127 128 129 130 131 132 133 134 135 136 137 138 139 140 141 142 143 144 145 146 147 148 149 150 151 152 153 154 155 156 157 158 159 160 161 162 163 164 165 166 167 168 169 170 171 172 173 174 175 176 177 178 179 180 181 182 183 184 185 186 187 188 189 190 191 192 193 194 195 196 197 198 199 200 201 202 203 204 205 206 207 208 209 210 211 212 213 214 215 216 217 218 219 220 221 222 223 224 225 226 227 228 229 230 231 232 233 234 235 236 237 238 239 240 241 242 243 244 245 246 247 248 249 250 251 252 253 254 255 256 257 258 259 260 261 262 263 264 265 266 267 268 269 270 271 272 273 274 275 276 277 278 279 280 281 282 283 284 285 286 287 288 289 290 291 292 293 294 295 296 297 298 299 300 301 302 303 304 305 306 307 308 309 310 311 312 313 314 315 316 317 318 319 320 321 322 323 324 325 326 327 328 329 330 331 332 333 334 335 336 337 338 339 340 341 342 343 344 345 346 347 348 349 350 351 352 353 354 355 356 357 358 359 360 361 362 363 364 365 366 367 368 369 370 371 372 373 374 375 376 377 378 379 380 381 382 383 384 385 386 387 388 389 390 391 392 393 394 395 396 397 398 399 400 401 402 403 404 405 406 407 408 409 410 411 412 413 414 415 416 417 418 419 420 421 422 423 424 425 426 427 428 429 430 431 432 433 434 435 436 437 438 439 440 441 442 443 444 445 446 447 448 449 450 451 452 453 454 455 456 457 458 459 460 461 462 463 464 465 466 467 468 469 470 471 472 473 474 475 476 477 478 479 480 481 482 483 484 485 486 487 488 489 490 491 492 493 494 495 496 497 498 499 500 501 502 503 504 505 506 507 508 509 510 511 512 513 514 515 516 517 518 519 520 521 522 523 524 525 526 527 528 529 530 531 532 533 534 535 536 537 538 539 540 541 542 543 544 545 546 547 548 549 550 551 552 553 554 555 556 557 558 559 560 561 562 563 564 565 566 567 568 569 570 571 572 573 574 575 576 577 578 579 580 581 582 583 584 585 586 587 588 589 590 591 592 593 594 595 596 597 598 599 600 601 602 603 604 605 606 607 608 609 610 611 612 613 614 615 616 617 618 619 620 621 622 623 624 625 626 627 628 629 630 631 632 633 634 635 636 637 638 639 640 641 642 643 644 645 646 647 648 649 650 651 652 653 654 655 656 657 658 659 660 661 662 663 664 665 666 667 668 669 670 671 </p>
        </polylist>
      </mesh>
    </geometry>
  </library_geometries>
  <library_controllers>
  </library_controllers>
  <library_visual_scenes>
    <visual_scene id="_ySTL_BINARY_" name="&lt;STL_BINARY&gt;">
      <node id="node" name="" type="NODE">
        <matrix sid="matrix">1 0 0 0 0 1 0 0 0 0 1 0 0 0 0 1</matrix>
        <instance_geometry url="#mesh_0">
          <bind_material>
            <technique_common>
              <instance_material symbol="defaultMaterial" target="#DefaultMaterial">
              </instance_material>
            </technique_common>
          </bind_material>
        </instance_geometry>
      </node>
    </visual_scene>
  </library_visual_scenes>
  <scene>
    <instance_visual_scene url="#_ySTL_BINARY_" />
  </scene>
</COLLADA>
